<svg xmlns="http://www.w3.org/2000/svg" version="1.1" xmlns:xlink="http://www.w3.org/1999/xlink" xmlns:svgjs="http://svgjs.dev/svgjs" width="1000" height="1122" viewBox="0 0 1000 1122"><g transform="matrix(1,0,0,1,0.19944114349601705,0.45426483006826857)"><svg viewBox="0 0 220 247" data-background-color="#046380" preserveAspectRatio="xMidYMid meet" height="1122" width="1000" xmlns="http://www.w3.org/2000/svg" xmlns:xlink="http://www.w3.org/1999/xlink"><g id="tight-bounds" transform="matrix(1,0,0,1,-0.04387690897942775,-0.09999695808656384)"><svg viewBox="0 0 220.08774193548388 247.2" height="247.2" width="220.08774193548388"><g><svg viewBox="0 0 220.08774193548388 247.2" height="247.2" width="220.08774193548388"><g><svg viewBox="0 0 220.08774193548388 247.2" height="247.2" width="220.08774193548388"><g><svg viewBox="0 0 220.08774193548388 247.2" height="247.2" width="220.08774193548388"><g><svg viewBox="0 0 220.08774193548388 247.2" height="247.2" width="220.08774193548388"><g transform="matrix(1,0,0,1,0,0)"><svg width="220.08774193548388" viewBox="0.9000000357627869 -42.099998474121094 55.19999694824219 62" height="247.2" data-palette-color="#ffffff"><path d="M49.15-24.15L49.15-24.15Q50.05-24.15 50.05-22.65 50.05-21.15 49.08-16.9 48.1-12.65 45.68-5.4 43.25 1.85 40.7 6.4L40.7 6.4Q41.45 6.35 43.38 6.3 45.3 6.25 46.53 6.2 47.75 6.15 49.48 5.88 51.2 5.6 52.3 5.1L52.3 5.1Q54.95 3.85 55.4 1.4L55.4 1.4Q55.3 0.75 55.48 0.68 55.65 0.6 55.75 0.85L55.75 0.85Q56.1 1.5 56.1 2.25 56.1 3 55.3 4.33 54.5 5.65 52.15 6.63 49.8 7.6 39.95 7.7L39.95 7.7Q37.55 11.3 33.88 14.05 30.2 16.8 26.1 18.35 22 19.9 19.18 19.9 16.35 19.9 14.4 19.25L14.4 19.25Q10.65 18 10.65 15.45L10.65 15.45Q10.65 12.15 16.7 9.65L16.7 9.65Q24.45 6.45 38.3 6.45L38.3 6.45Q43.2-5.55 45.15-12.9L45.15-12.9Q40.6-3.1 35 0.7L35 0.7Q32.05 2.7 29.3 2.7 26.55 2.7 25.03 1.2 23.5-0.3 23.5-2.9L23.5-2.9Q23.5-8.35 30.9-20.4L30.9-20.4Q33.2-24.15 34.6-28L34.6-28Q36.2-32.25 36.2-35.3 36.2-38.35 34.23-39.65 32.25-40.95 29.45-40.95L29.45-40.95Q28.35-40.95 27.1-40.7L27.1-40.7Q18.1-39 10.85-31.35L10.85-31.35Q7.2-27.5 5.5-23.45L5.5-23.45Q3.75-19.1 3.75-16L3.75-16Q3.75-14.7 4.1-13.6L4.1-13.6Q5.1-9.95 8.05-8.6L8.05-8.6Q9.55-7.95 11.15-7.95L11.15-7.95Q16.7-7.95 20.6-14.15L20.6-14.15Q22.8-17.7 22.8-20.35L22.8-20.35Q22.8-23.8 19.7-23.8L19.7-23.8Q19.1-23.8 18.25-23.63 17.4-23.45 17.35-23.75L17.35-23.75Q17.3-24.15 18.5-24.45 19.7-24.75 20.8-24.75L20.8-24.75Q23.4-24.75 24.3-22.55L24.3-22.55Q24.7-21.6 24.7-20.5L24.7-20.5Q24.7-18.3 23.15-15.4L23.15-15.4Q20.1-9.85 14.2-7.4L14.2-7.4Q12.4-6.65 10.9-6.65L10.9-6.65Q6.05-6.65 3.3-10.15L3.3-10.15Q0.9-13.1 0.9-16.9 0.9-20.7 2.75-24.5 4.6-28.3 7.58-31.5 10.55-34.7 13.95-36.9 17.35-39.1 21.1-40.55L21.1-40.55Q25.05-42.1 28.35-42.1 31.65-42.1 34.2-41.1L34.2-41.1Q36.85-39.9 37.95-37.88 39.05-35.85 39.05-33.6L39.05-33.6Q39.05-27.95 34.9-21.05L34.9-21.05Q28.45-10.05 27.1-3.95L27.1-3.95Q26.9-2.9 26.9-1.75 26.9-0.6 27.65 0.4 28.4 1.4 29.85 1.4L29.85 1.4Q31.9 1.4 34.3-0.35L34.3-0.35Q37.15-2.35 40-6.9L40-6.9Q44.75-14.5 47.15-22.45L47.15-22.45Q47.3-23.25 48.05-23.7 48.8-24.15 49.15-24.15ZM13.35 15.95L13.35 15.95Q13.35 16.35 13.55 16.75L13.55 16.75Q14.6 18.45 18.38 18.45 22.15 18.45 25.58 17.2 29 15.95 32.25 13.53 35.5 11.1 37.6 7.7L37.6 7.7Q24.5 7.7 17.5 11.75L17.5 11.75Q13.35 14.15 13.35 15.95Z" opacity="1" transform="matrix(1,0,0,1,0,0)" fill="#ffffff" class="undefined-text-0" data-fill-palette-color="primary" id="text-0"></path></svg></g></svg></g></svg></g></svg></g></svg></g><defs></defs></svg><rect width="220.08774193548388" height="247.2" fill="none" stroke="none" visibility="hidden"></rect></g></svg></g></svg>